<svg width="280" height="120" viewBox="0 0 280 120" fill="none" xmlns="http://www.w3.org/2000/svg">
  <!-- Background (optional, can be removed) -->
  <rect width="280" height="120" fill="#1a4d63" rx="4"/>
  
  <!-- Main Logo "SiWeb" -->
  <g>
    <!-- Letter S -->
    <path d="M 30 35 Q 25 35 25 40 Q 25 45 30 45 L 35 45 Q 40 45 40 50 Q 40 55 35 55 L 30 55 Q 25 55 25 60" 
          stroke="white" stroke-width="3" fill="none" stroke-linecap="round" stroke-linejoin="round"/>
    
    <!-- Letter i (vertical line) -->
    <rect x="50" y="35" width="3" height="25" fill="white" rx="1.5"/>
    <circle cx="51.5" cy="32" r="2" fill="white"/>
    
    <!-- Letter W (mountain shape) -->
    <path d="M 65 60 L 70 35 L 75 50 L 80 35 L 85 60" 
          stroke="white" stroke-width="3" fill="none" stroke-linecap="round" stroke-linejoin="round"/>
    
    <!-- Letter e -->
    <path d="M 100 55 L 110 55 Q 115 55 115 50 Q 115 42 110 42 Q 100 42 100 50 Q 100 58 110 58" 
          stroke="white" stroke-width="3" fill="none" stroke-linecap="round" stroke-linejoin="round"/>
    
    <!-- Letter b -->
    <path d="M 125 35 L 125 60 Q 125 65 130 65 Q 138 65 138 52 Q 138 42 130 42 Q 125 42 125 48" 
          stroke="white" stroke-width="3" fill="none" stroke-linecap="round" stroke-linejoin="round"/>
  </g>
  
  <!-- Tagline -->
  <text x="140" y="95" font-family="Arial, sans-serif" font-size="10" fill="white" letter-spacing="2" font-weight="300">
    DIGITAL BUILDERS
  </text>
</svg>